# Blender v2.91.2 OBJ File: 'first.blend'
# www.blender.org
mtllib facemask.mtl
o Cube
v -0.192423 0.049016 -1.177647
v -0.192423 1.447981 -1.177647
v -0.192423 0.049016 -4.092679
v -0.192423 1.447981 -4.092679
v 0.192423 0.049016 -1.177647
v 0.192423 1.447981 -1.177647
v 0.192423 0.049016 -4.092679
v 0.192423 1.447981 -4.092679
vt 0.702341 0.750074
vt 0.353095 0.746957
vt 0.359500 0.008932
vt 0.708747 0.012049
vt 1.000000 0.357048
vt 1.000000 0.710995
vt 0.902632 0.710995
vt 0.902632 0.357048
vt 0.347260 0.747831
vt 0.002570 0.745802
vt 0.006687 0.008293
vt 0.351377 0.010322
vt 1.000000 0.025506
vt 1.000000 0.347043
vt 0.902632 0.347043
vt 0.902632 0.025506
vt 0.720703 0.040933
vt 0.792454 0.040933
vt 0.792454 0.696588
vt 0.720703 0.696588
vt 0.811830 0.034392
vt 0.896064 0.034392
vt 0.896064 0.703130
vt 0.811830 0.703130
vn -1.0000 0.0000 0.0000
vn 0.0000 0.0000 -1.0000
vn 1.0000 0.0000 0.0000
vn 0.0000 0.0000 1.0000
vn 0.0000 -1.0000 0.0000
vn 0.0000 1.0000 0.0000
usemtl Material
s off
f 1/1/1 2/2/1 4/3/1 3/4/1
f 3/5/2 4/6/2 8/7/2 7/8/2
f 7/9/3 8/10/3 6/11/3 5/12/3
f 5/13/4 6/14/4 2/15/4 1/16/4
f 3/17/5 7/18/5 5/19/5 1/20/5
f 8/21/6 4/22/6 2/23/6 6/24/6
